<svg width="134" height="131" viewBox="0 0 134 131" fill="none" xmlns="http://www.w3.org/2000/svg">
<ellipse cx="67" cy="65.5" rx="67" ry="65.5" fill="url(#paint0_linear_49_9)"/>
<g clip-path="url(#clip0_49_9)">
<path d="M46.6862 67.55C47.6883 68.5521 49.328 68.5521 50.3301 67.55L64.1591 53.721L64.1591 86.0797C64.1591 86.4171 64.2256 86.7512 64.3547 87.0629C64.4838 87.3745 64.673 87.6578 64.9116 87.8963C65.1501 88.1349 65.4333 88.3241 65.745 88.4532C66.0567 88.5823 66.3908 88.6488 66.7281 88.6488C67.0655 88.6488 67.3996 88.5823 67.7113 88.4532C68.0229 88.3241 68.3062 88.1349 68.5447 87.8963C68.7833 87.6578 68.9725 87.3745 69.1016 87.0629C69.2307 86.7512 69.2972 86.4171 69.2972 86.0797L69.2972 53.721L83.1261 67.55C84.1282 68.5521 85.768 68.5521 86.7701 67.55C87.7722 66.5479 87.7722 64.9081 86.7701 63.906L68.5501 45.686C67.548 44.6839 65.9082 44.6839 64.9061 45.686L46.6862 63.906C45.6841 64.9081 45.6841 66.5479 46.6862 67.55Z" fill="white"/>
</g>
<defs>
<linearGradient id="paint0_linear_49_9" x1="67" y1="0" x2="67" y2="131" gradientUnits="userSpaceOnUse">
<stop stop-color="#FFDD5E"/>
<stop offset="0.9999" stop-color="#FFC65F"/>
<stop offset="1" stop-color="#D9D9D9" stop-opacity="0"/>
</linearGradient>
<clipPath id="clip0_49_9">
<rect width="61.8407" height="61.8407" fill="white" transform="translate(23 65.728) rotate(-45)"/>
</clipPath>
</defs>
</svg>
