<svg width="134" height="131" viewBox="0 0 134 131" fill="none" xmlns="http://www.w3.org/2000/svg">
<ellipse cx="67" cy="65.5" rx="67" ry="65.5" fill="url(#paint0_linear_49_8)"/>
<g clip-path="url(#clip0_49_8)">
<path d="M86.7699 66.0269C85.7678 65.0248 84.128 65.0248 83.1259 66.0269L69.2969 79.8559L69.2969 47.4972C69.2969 47.1598 69.2305 46.8257 69.1014 46.514C68.9723 46.2024 68.783 45.9192 68.5445 45.6806C68.3059 45.442 68.0227 45.2528 67.711 45.1237C67.3994 44.9946 67.0653 44.9281 66.7279 44.9281C66.3906 44.9281 66.0565 44.9946 65.7448 45.1237C65.4331 45.2528 65.1499 45.442 64.9114 45.6806C64.6728 45.9192 64.4836 46.2024 64.3545 46.514C64.2254 46.8257 64.1589 47.1598 64.1589 47.4972L64.1589 79.8559L50.3299 66.0269C49.3278 65.0248 47.688 65.0248 46.6859 66.0269C45.6838 67.029 45.6838 68.6688 46.6859 69.6709L64.9059 87.8909C65.908 88.893 67.5478 88.893 68.5499 87.8909L86.7699 69.6709C87.772 68.6688 87.772 67.029 86.7699 66.0269Z" fill="white"/>
</g>
<defs>
<linearGradient id="paint0_linear_49_8" x1="67" y1="0" x2="67" y2="131" gradientUnits="userSpaceOnUse">
<stop stop-color="#FFDD5E"/>
<stop offset="0.9999" stop-color="#FFC65F"/>
<stop offset="1" stop-color="#D9D9D9" stop-opacity="0"/>
</linearGradient>
<clipPath id="clip0_49_8">
<rect width="61.8407" height="61.8407" fill="white" transform="translate(23 65.728) rotate(-45)"/>
</clipPath>
</defs>
</svg>
