<svg width="312" height="548" viewBox="0 0 312 548" fill="none" xmlns="http://www.w3.org/2000/svg">
<path d="M195 411C195 427.31 189.312 441.173 177.938 452.589C166.563 464.006 152.75 469.714 136.5 469.714C120.25 469.714 106.437 464.006 95.0625 452.589C83.6875 441.173 78 427.31 78 411C78 398.768 81.5547 387.555 88.6641 377.362C95.7734 367.168 105.219 359.931 117 355.65V234.857H156V355.65C167.781 359.931 177.227 367.168 184.336 377.362C191.445 387.555 195 398.768 195 411ZM234 411C234 395.302 230.547 380.624 223.641 366.964C216.734 353.305 207.188 341.888 195 332.714V97.8571C195 81.5476 189.312 67.6845 177.938 56.2679C166.563 44.8512 152.75 39.1429 136.5 39.1429C120.25 39.1429 106.437 44.8512 95.0625 56.2679C83.6875 67.6845 78 81.5476 78 97.8571V332.714C65.8125 341.888 56.2656 353.305 49.3594 366.964C42.4531 380.624 39 395.302 39 411C39 438.115 48.4961 461.203 67.4883 480.265C86.4805 499.326 109.484 508.857 136.5 508.857C163.516 508.857 186.52 499.326 205.512 480.265C224.504 461.203 234 438.115 234 411ZM273 411C273 448.716 259.645 480.978 232.934 507.787C206.223 534.596 174.078 548 136.5 548C98.9219 548 66.7773 534.596 40.0664 507.787C13.3555 480.978 0 448.716 0 411C0 373.896 13 341.99 39 315.283V97.8571C39 70.7426 48.4961 47.6544 67.4883 28.5926C86.4805 9.53088 109.484 0 136.5 0C163.516 0 186.52 9.53088 205.512 28.5926C224.504 47.6544 234 70.7426 234 97.8571V315.283C260 341.99 273 373.896 273 411ZM312 234.857V274H253.5V234.857H312ZM312 156.571V195.714H253.5V156.571H312ZM312 78.2857V117.429H253.5V78.2857H312Z" fill="#649AF1"/>
</svg>
